<svg width="521" height="57" viewBox="0 0 521 57" fill="none" xmlns="http://www.w3.org/2000/svg">
<path d="M26.9217 29.6964C23.3366 27.936 16.0357 25.0019 13.1675 23.1111C6.8445 19.0684 15.1231 12.809 22.9454 17.5036C24.3795 18.3513 25.8136 19.5901 27.1825 21.0897L34.027 15.0912C30.2462 10.7877 24.3795 7.4624 17.4046 7.4624C10.5601 7.4624 3.32448 10.9833 1.76002 18.5468C0.456301 24.7411 4.49781 29.8269 11.4075 32.6306L20.6639 36.8035C26.9869 39.6725 25.3573 44.8234 19.8165 45.345C16.2313 45.6711 11.1468 44.4975 6.8445 39.542L0 45.5407C4.43263 50.9525 11.4727 54.2126 17.6653 54.2126C35.3307 54.2779 40.1545 36.3471 26.9217 29.6964Z" fill="#6E86F0"/>
<path d="M77.8976 8.04909L76.268 10.6572L62.7745 32.6957L49.281 10.6572L47.6513 8.04909H40.4158C40.4158 22.7848 40.4158 38.4987 40.4158 53.6257H49.281V27.675L57.5596 41.172L62.7745 49.7135L67.9893 41.172L76.268 27.675V53.6257H85.1331C85.1331 38.4987 85.1331 22.7848 85.1331 7.98389H77.8976V8.04909Z" fill="#6E86F0"/>
<path d="M194.726 51.8652L185.013 35.5646C191.011 33.9997 195.444 28.5228 195.444 22.0677C195.444 14.3085 189.12 7.98389 181.363 7.98389H159.265V53.6257H168.13V36.0863H174.976L184.361 51.8652L185.405 53.6257H195.769L194.726 51.8652ZM181.363 27.1534H168.13V16.9166H181.363C184.231 16.9166 186.513 19.264 186.513 22.0677C186.513 24.8713 184.231 27.1534 181.363 27.1534Z" fill="#6E86F0"/>
<path d="M198.144 8.04907V16.9166H210.463V53.6257H219.328V16.9166H231.713V8.04907H198.144Z" fill="#6E86F0"/>
<path d="M254.798 8.04907V16.9166H267.119V53.6257H275.984V16.9166H288.369V8.04907H254.798Z" fill="#6E86F0"/>
<path d="M328.28 51.8652L318.568 35.5646C324.564 33.9997 328.998 28.5228 328.998 22.0677C328.998 14.3085 322.674 7.98389 314.917 7.98389H292.819V53.6257H301.685V36.0863H308.53L317.917 51.8652L318.959 53.6257H329.323L328.28 51.8652ZM314.917 27.1534H301.685V16.9166H314.917C317.786 16.9166 320.067 19.264 320.067 22.0677C320.067 24.8713 317.786 27.1534 314.917 27.1534Z" fill="#6E86F0"/>
<path d="M358.554 8.04907H347.603L331.632 53.6257H341.084L344.409 44.0409L344.539 43.78H361.618L361.684 44.0409L365.072 53.6257H374.525L358.554 8.04907ZM347.603 34.9126L347.799 34.3909L353.078 19.3944L358.489 34.7821V34.9126H347.603Z" fill="#6E86F0"/>
<path d="M394.008 8.04907H378.886V53.6257H394.008C406.329 53.6257 416.042 43.0629 416.042 30.8047C416.042 18.6119 406.329 8.04907 394.008 8.04907ZM394.008 44.7581H387.751V16.9166H394.008C401.244 16.9166 407.175 23.3064 407.175 30.8047C407.175 38.3682 401.244 44.7581 394.008 44.7581Z" fill="#6E86F0"/>
<path d="M430.719 53.6257V8.04907H421.854V53.6257H430.719Z" fill="#6E86F0"/>
<path d="M464.866 8.04907V35.6297L445.832 8.04907H438.596V53.6257H447.461V26.045L466.495 53.6257H473.797V8.04907H464.866Z" fill="#6E86F0"/>
<path d="M496.621 26.3712V35.3039H512.135V42.0849C509.658 44.1063 506.463 45.345 502.943 45.345C494.926 45.345 488.472 38.8248 488.472 30.8049C488.472 22.8502 494.926 16.3299 502.943 16.3299C506.984 16.3299 510.571 17.96 513.243 20.5681L519.826 14.6346C516.763 11.3746 512.722 9.02726 508.158 7.98402C506.463 7.65801 504.769 7.4624 502.943 7.4624C501.184 7.4624 499.424 7.658 497.794 8.04922C487.365 10.3965 479.608 19.7205 479.608 30.8049C479.608 41.9546 487.365 51.2785 497.794 53.6258C499.424 54.017 501.119 54.2127 502.878 54.2127H503.009C504.769 54.2127 506.529 54.017 508.158 53.6258C509.527 53.3651 510.897 52.9085 512.135 52.3869C515.589 50.8873 518.654 48.6052 521 45.7364V26.3712H496.621Z" fill="#6E86F0"/>
<path d="M119.947 1.37466C108.267 3.24088 99.328 11.3844 96.7138 22.4969C95.6596 27.0776 96.0813 33.3973 97.7257 37.8084C100.846 46.3761 108.014 52.9079 116.616 55.1134C119.947 55.9616 126.399 56.004 129.645 55.1558C133.356 54.2226 138.585 51.4658 141.325 49.0058C148.325 42.7285 151.74 32.6339 149.927 23.5572C148.788 17.8314 146.427 13.4627 142.337 9.34851C138.627 5.65849 135.675 3.83468 130.953 2.3926C128.085 1.50191 122.351 0.95052 119.947 1.37466ZM130.995 5.74332C137.909 8.16092 143.433 13.7172 145.921 20.8427C147.187 24.3206 147.481 30.5131 146.554 34.1608C144.446 42.5164 138.289 49.0906 130.067 51.6354C125.977 52.9502 119.778 52.9079 115.941 51.593C105.864 48.0725 99.3702 39.1233 99.4124 28.6894C99.4124 24.1087 99.9606 21.6487 101.942 17.6193C104.767 11.7661 111.008 6.76125 117.459 5.10711C120.917 4.21641 127.537 4.55572 130.995 5.74332Z" fill="#6E86F0"/>
<path d="M111.643 17.1665C111.643 19.079 111.643 19.079 113.09 19.079H114.537V26.5166V33.9541H116.191H117.845V24.604V15.2539H114.744H111.643V17.1665Z" fill="#6E86F0"/>
<path d="M124.048 17.1665C124.048 19.079 124.048 19.079 125.495 19.079H126.942V26.5166V33.9541H128.596H130.25V24.604V15.2539H127.149H124.048V17.1665Z" fill="#6E86F0"/>
<path d="M103.908 34.2852C103.78 34.5334 104.334 35.9808 105.144 37.5524C106.805 40.7368 110.426 44.4588 113.366 45.9063C122.951 50.6622 135.05 46.9401 139.822 37.7592C141.61 34.3679 141.568 33.9543 139.438 33.9543C137.82 33.9543 137.692 34.0784 136.669 36.0635C135.178 38.8757 132.239 41.6466 129.299 42.97C127.169 43.9625 126.36 44.0866 122.398 44.0866C118.308 44.0866 117.711 43.9625 115.496 42.8873C112.727 41.5225 110.213 39.1652 108.467 36.2289C107.359 34.4093 107.018 34.1611 105.698 34.0371C104.846 33.9543 104.036 34.0784 103.908 34.2852Z" fill="#6E86F0"/>
</svg>
