<?xml version="1.0" standalone="no"?>
<!DOCTYPE svg PUBLIC "-//W3C//DTD SVG 20010904//EN"
 "http://www.w3.org/TR/2001/REC-SVG-20010904/DTD/svg10.dtd">
<svg version="1.0" xmlns="http://www.w3.org/2000/svg"
 width="700.000000pt" height="700.000000pt" viewBox="0 0 700.000000 700.000000"
 preserveAspectRatio="xMidYMid meet">
<metadata>
Created by potrace 1.14, written by Peter Selinger 2001-2017
</metadata>
<g transform="translate(0.000000,700.000000) scale(0.100000,-0.100000)"
fill="#000000" stroke="none">
<path d="M3165 6989 c-987 -100 -1877 -603 -2470 -1394 -139 -186 -220 -318
-335 -550 -180 -364 -271 -662 -337 -1100 -25 -172 -26 -716 0 -890 65 -442
172 -788 358 -1151 273 -534 673 -982 1179 -1319 459 -305 916 -477 1495 -562
173 -25 707 -25 885 0 422 60 741 157 1105 337 370 183 647 381 930 665 284
283 482 560 665 930 180 364 277 683 337 1105 26 180 25 713 0 885 -95 636
-308 1164 -660 1638 -573 771 -1394 1255 -2362 1393 -131 18 -652 27 -790 13z
m2482 -1501 c-2 -7 -47 -84 -99 -171 l-95 -157 -24 35 c-13 19 -27 34 -31 32
-4 -1 -630 -470 -1390 -1042 -802 -603 -1391 -1040 -1403 -1039 -11 0 -297
204 -635 453 -338 249 -616 454 -618 456 -2 1 -2 36 0 78 l3 75 620 -459 c341
-252 625 -458 630 -459 8 0 2698 2009 2721 2033 4 4 -5 22 -19 40 l-26 34 177
50 c203 59 196 57 189 41z m-27 -2393 l0 -1605 -330 0 -330 0 0 1605 0 1605
330 0 330 0 0 -1605z m-890 -425 l0 -1180 -335 0 -335 0 0 1180 0 1180 335 0
335 0 0 -1180z m-900 -250 l0 -930 -330 0 -330 0 0 930 0 930 330 0 330 0 0
-930z m-1780 -90 l0 -840 -295 0 -295 0 0 840 0 840 295 0 295 0 0 -840z m890
-180 l0 -660 -335 0 -335 0 0 660 0 660 335 0 335 0 0 -660z"/>
</g>
</svg>
