<svg width="61" height="60" viewBox="0 0 61 60" fill="none" xmlns="http://www.w3.org/2000/svg">
<g clip-path="url(#clip0_2_1096)">
<path d="M50.813 36.4286C50.813 34.2857 49.105 32.5714 46.97 32.5714C45.628 32.5714 44.408 33.3061 43.737 34.4081V34.2857C43.737 32.1428 42.029 30.4286 39.894 30.4286C38.552 30.4286 37.332 31.1632 36.661 32.2041V32.0816C36.661 29.9388 34.953 28.2245 32.818 28.2245C31.476 28.2245 30.256 28.9592 29.585 30V17.2041C29.585 16.1633 29.158 15.1837 28.487 14.449C27.755 13.7143 26.779 13.3469 25.803 13.3469C23.668 13.3469 21.96 15.0612 21.96 17.2041V40.9592C21.96 41.2041 21.838 41.3877 21.655 41.449C21.472 41.5102 21.228 41.5102 21.106 41.3265L17.202 37.4694C15.86 36.1837 13.847 35.9388 12.261 36.9796C11.346 37.5918 10.736 38.5714 10.614 39.6735C10.431 40.7755 10.797 41.8775 11.468 42.7347L21.167 54.4898C23.912 57.7959 27.938 59.7551 32.269 59.7551H38.308C41.663 59.7551 44.835 58.4081 47.214 56.0204C49.593 53.6326 50.935 50.449 50.935 47.0816L50.813 36.4286Z" fill="#6E86F0"/>
<path d="M25.742 9.61215C26.718 9.61215 27.511 8.81623 27.511 7.83664V3.30603C27.511 2.32644 26.718 1.53052 25.742 1.53052C24.766 1.53052 23.973 2.32644 23.973 3.30603V7.83664C23.973 8.81623 24.766 9.61215 25.742 9.61215Z" fill="#6E86F0"/>
<path d="M17.934 11.8162C18.3 12.1835 18.727 12.306 19.154 12.306C19.581 12.306 20.069 12.1223 20.374 11.8162C21.045 11.1427 21.045 9.97943 20.374 9.30596L17.202 6.12229C16.531 5.44882 15.372 5.44882 14.701 6.12229C14.03 6.79576 14.03 7.95902 14.701 8.63249L17.934 11.8162Z" fill="#6E86F0"/>
<path d="M11.895 18.9795H16.47C17.446 18.9795 18.239 18.1836 18.239 17.204C18.239 16.2244 17.446 15.4285 16.47 15.4285H11.956C10.98 15.4285 10.187 16.2244 10.187 17.204C10.187 18.1836 10.98 18.9795 11.895 18.9795Z" fill="#6E86F0"/>
<path d="M33.306 17.204C33.306 18.1836 34.099 18.9795 35.075 18.9795H39.589C40.565 18.9795 41.358 18.1836 41.358 17.204C41.358 16.2244 40.565 15.4285 39.589 15.4285H35.075C34.099 15.4285 33.306 16.2244 33.306 17.204Z" fill="#6E86F0"/>
<path d="M32.3301 12.3672C32.7571 12.3672 33.2451 12.1836 33.5501 11.8774L36.7221 8.69377C37.3931 8.0203 37.3931 6.85704 36.7221 6.18357C36.0511 5.5101 34.8921 5.5101 34.2211 6.18357L31.1101 9.30602C30.4391 9.97949 30.4391 11.1428 31.1101 11.8162C31.4761 12.1836 31.9031 12.3672 32.3301 12.3672Z" fill="#6E86F0"/>
</g>
<defs>
<clipPath id="clip0_2_1096">
<rect width="61" height="60" fill="white"/>
</clipPath>
</defs>
</svg>
