<svg width="60" height="58" viewBox="0 0 60 58" fill="none" xmlns="http://www.w3.org/2000/svg">
<g clip-path="url(#clip0_4_263)">
<path fill-rule="evenodd" clip-rule="evenodd" d="M25.0188 1.77856C12.1813 1.77856 1.77441 12.2098 1.77441 25.0773C1.77441 37.9449 12.1813 48.3755 25.0188 48.3755C27.7819 48.3755 30.4325 47.8912 32.8907 47.0042C32.5813 46.5199 32.4394 45.9799 32.3575 45.3973C32.3338 45.2275 32.3125 44.9224 32.2682 44.7289C32.12 44.5917 31.8669 44.4219 31.7282 44.3129C31.1669 43.8718 30.7057 43.3826 30.4582 42.6966C30.2094 42.0094 30.2563 41.3409 30.4063 40.6418C30.4419 40.4752 30.5282 40.1763 30.5507 39.9815C30.4757 39.833 30.33 39.6294 30.2538 39.5098C29.9407 39.0205 29.6844 38.54 29.5819 37.9587C29.5232 37.6235 29.5263 37.2984 29.5794 36.9833H12.4488C12.4488 30.0245 18.0769 24.3838 25.0188 24.3838C28.1669 24.3838 31.0438 25.5441 33.2488 27.461C33.6944 26.9974 34.2444 26.7343 34.8575 26.5339C35.0219 26.48 35.3169 26.4067 35.5007 26.3284C35.6094 26.1586 35.7319 25.8798 35.8144 25.7245C36.1494 25.0936 36.5482 24.553 37.1782 24.1884C37.8088 23.8232 38.4744 23.7517 39.1857 23.7762C39.3575 23.7818 39.66 23.8144 39.8594 23.8037C40.0207 23.6803 40.2294 23.4617 40.3613 23.3433C40.8913 22.8672 41.4525 22.4982 42.1675 22.3716C42.8825 22.2451 43.5363 22.3992 44.1969 22.6655C44.3613 22.7319 44.6325 22.8653 44.8257 22.9261C45.0163 22.8672 45.2894 22.7337 45.4494 22.6692C46.1094 22.4023 46.7594 22.2413 47.4769 22.3685C47.7088 22.4092 47.9244 22.4763 48.1275 22.564C46.8769 10.8786 37.0088 1.77856 25.0188 1.77856ZM41.9232 52.4945L39.1982 58.3619L36.8513 54.3144L32.25 55.12L35.315 48.5215C35.3844 48.5434 35.4494 48.5666 35.505 48.5897C35.6138 48.7583 35.7369 49.037 35.8182 49.1899C36.1525 49.8195 36.5494 50.3601 37.1794 50.7247C37.8094 51.0893 38.4744 51.1639 39.1863 51.1394C39.3588 51.1338 39.6613 51.1012 39.8607 51.1119C40.0207 51.234 40.2313 51.4539 40.3613 51.5717C40.8294 51.9946 41.3207 52.3341 41.9232 52.4945ZM55 48.3097L57.395 53.8834L52.8194 52.9443L50.3569 56.9223L48.3475 52.2464C48.6832 52.071 48.9882 51.8392 49.2832 51.5742C49.415 51.4558 49.6244 51.2365 49.785 51.1131C49.9844 51.1031 50.2869 51.1351 50.4588 51.1407C51.17 51.1651 51.8363 51.0937 52.4669 50.7285C53.0969 50.3639 53.4963 49.8226 53.8307 49.1924C53.9132 49.0377 54.0357 48.7583 54.1444 48.5885C54.3282 48.5102 54.6238 48.4369 54.7875 48.383C54.8588 48.3598 54.93 48.3354 55 48.3097ZM58.2107 37.2858C58.3563 38.1153 57.3763 38.8382 57.2332 39.652C57.0982 40.4188 57.6694 41.3629 57.4182 42.0539C57.165 42.7486 56.1175 43.1069 55.7338 43.7722C55.3488 44.4394 55.5619 45.5282 55.0894 46.0933C54.6182 46.6571 53.5119 46.6371 52.9219 47.1345C52.3363 47.6281 52.1682 48.7232 51.5257 49.0953C50.8963 49.4599 49.8582 49.0633 49.1332 49.3271C48.4213 49.5858 47.8888 50.5575 47.15 50.6878C46.4113 50.8181 45.5794 50.0882 44.8219 50.0889C44.0507 50.0895 43.2107 50.8181 42.495 50.6909C41.7644 50.5618 41.2319 49.5902 40.5138 49.3271C39.79 49.0621 38.7575 49.4599 38.1219 49.0922C37.4844 48.7225 37.3132 47.6275 36.7244 47.132C36.1363 46.6377 35.0307 46.6609 34.555 46.0945C34.0832 45.532 34.2975 44.4476 33.9094 43.7741C33.5282 43.1132 32.4819 42.7555 32.2275 42.0532C31.9794 41.3666 32.5525 40.4269 32.4157 39.6507C32.29 38.9366 31.5519 38.2982 31.4344 37.6304C31.2882 36.8003 32.2688 36.078 32.4119 35.2642C32.5469 34.4981 31.9757 33.5528 32.2269 32.8624C32.48 32.167 33.5275 31.8087 33.9113 31.144C34.2957 30.4768 34.0832 29.3887 34.5557 28.823C35.0269 28.2591 36.1332 28.2792 36.7232 27.7818C37.3088 27.2881 37.4775 26.1924 38.1194 25.8209C38.7488 25.4563 39.7869 25.8529 40.5119 25.5892C41.2244 25.3304 41.7563 24.3588 42.495 24.2285C43.2338 24.0975 44.0657 24.828 44.8232 24.8274C45.5944 24.8268 46.4344 24.0982 47.15 24.2253C47.8807 24.3544 48.4132 25.3267 49.1313 25.5892C49.8557 25.8542 50.8882 25.4563 51.5232 25.8241C52.1607 26.1937 52.3319 27.2894 52.9207 27.7843C53.5082 28.2779 54.615 28.2554 55.09 28.8217C55.5619 29.3849 55.3475 30.468 55.7357 31.1421C56.1163 31.8024 57.1632 32.1608 57.4175 32.863C57.6657 33.549 57.0925 34.4893 57.2294 35.2655C57.3557 35.9797 58.0938 36.6187 58.2107 37.2858ZM44.8225 27.3602C47.6044 27.3602 50.1232 28.4903 51.9463 30.3183C53.7694 32.1457 54.8975 34.6704 54.8975 37.4587C54.8975 40.2471 53.77 42.7718 51.9463 44.5992C50.1232 46.4266 47.6044 47.5573 44.8225 47.5573C42.0407 47.5573 39.5219 46.4272 37.6988 44.5992C35.8757 42.7718 34.7475 40.2471 34.7475 37.4587C34.7475 34.6704 35.875 32.1457 37.6988 30.3183C39.5213 28.4903 42.04 27.3602 44.8225 27.3602ZM50.6157 31.6514C52.0982 33.1374 53.0157 35.191 53.0157 37.4587C53.0157 39.7265 52.0988 41.7801 50.6157 43.2661C49.1325 44.752 47.0844 45.6717 44.8219 45.6717C42.5594 45.6717 40.5107 44.7527 39.0282 43.2661C37.5457 41.7801 36.6282 39.7265 36.6282 37.4587C36.6282 35.191 37.545 33.1374 39.0282 31.6514C40.5107 30.1655 42.5594 29.2458 44.8219 29.2458C47.085 29.2458 49.1332 30.1655 50.6157 31.6514ZM44.8225 31.3927L46.3719 35.1935L50.4569 35.496L47.3294 38.1472L48.3044 42.1347L44.8225 39.9727L41.3407 42.1347L42.3157 38.1472L39.1888 35.496L43.2738 35.1935L44.8225 31.3927ZM25.0188 10.4651C28.5288 10.4651 31.3744 13.3174 31.3744 16.8356C31.3744 20.3538 28.5288 23.2061 25.0188 23.2061C21.5088 23.2061 18.6632 20.3538 18.6632 16.8356C18.6632 13.3168 21.5088 10.4651 25.0188 10.4651Z" fill="#6E86F0"/>
</g>
<defs>
<clipPath id="clip0_4_263">
<rect width="60" height="58" fill="white"/>
</clipPath>
</defs>
</svg>
