<svg width="42" height="42" viewBox="0 0 42 42" fill="none" xmlns="http://www.w3.org/2000/svg">
<circle cx="21" cy="21" r="20.5" transform="rotate(-180 21 21)" stroke="#998EB0"/>
<path d="M33 21.5C33.2761 21.5 33.5 21.2761 33.5 21C33.5 20.7239 33.2761 20.5 33 20.5V21.5ZM8.64645 20.6464C8.45119 20.8417 8.45119 21.1583 8.64645 21.3536L11.8284 24.5355C12.0237 24.7308 12.3403 24.7308 12.5355 24.5355C12.7308 24.3403 12.7308 24.0237 12.5355 23.8284L9.70711 21L12.5355 18.1716C12.7308 17.9763 12.7308 17.6597 12.5355 17.4645C12.3403 17.2692 12.0237 17.2692 11.8284 17.4645L8.64645 20.6464ZM33 20.5H9V21.5H33V20.5Z" fill="#9290A7"/>
</svg>
