<svg width="42" height="42" viewBox="0 0 42 42" fill="none" xmlns="http://www.w3.org/2000/svg">
<circle cx="21" cy="21" r="20.5" stroke="#998EB0"/>
<path d="M9 20.5C8.72386 20.5 8.5 20.7239 8.5 21C8.5 21.2761 8.72386 21.5 9 21.5L9 20.5ZM33.3536 21.3536C33.5488 21.1583 33.5488 20.8417 33.3536 20.6464L30.1716 17.4645C29.9763 17.2692 29.6597 17.2692 29.4645 17.4645C29.2692 17.6597 29.2692 17.9763 29.4645 18.1716L32.2929 21L29.4645 23.8284C29.2692 24.0237 29.2692 24.3403 29.4645 24.5355C29.6597 24.7308 29.9763 24.7308 30.1716 24.5355L33.3536 21.3536ZM9 21.5L33 21.5L33 20.5L9 20.5L9 21.5Z" fill="#9290A7"/>
</svg>
