<svg width="53" height="53" viewBox="0 0 53 53" fill="none" xmlns="http://www.w3.org/2000/svg">
<path fill-rule="evenodd" clip-rule="evenodd" d="M8.41057 47.7143H31.4062C33.1571 47.7143 34.5901 49.2219 34.5901 51.0646V53.1009H5.2215V51.0646C5.2215 49.2219 6.65449 47.7143 8.41057 47.7143ZM1.35501 17.0494L7.78005 10.6944C7.78005 10.6944 8.20734 8.06137 9.34853 7.43321L14.3197 4.71639C13.4391 3.50717 13.6319 1.42375 13.0743 0.17789C15.3567 -0.774828 17.6912 2.37124 18.5301 3.18262C19.0304 3.67468 23.741 4.83679 28.2224 8.56914C24.6425 11.2441 22.3184 15.5313 22.3184 20.3577C22.3184 27.969 28.0817 34.2297 35.4655 34.973C34.8402 37.3234 34.0169 39.3022 33.2405 40.7155H7.3736C7.93116 37.0983 8.26987 31.1412 13.512 26.7964C18.749 22.4516 17.91 18.3685 17.91 18.3685C17.91 18.3685 16.6125 21.0592 15.2108 21.6507C13.8038 22.2422 8.02496 23.1583 8.02496 23.1583C8.02496 23.1583 5.37782 25.0428 4.51282 25.0428C3.64781 25.0428 1.76146 22.3521 1.76146 22.3521C1.76146 22.3521 -1.91222 20.1431 1.35501 17.0494ZM6.86293 42.2231H32.9539C35.5958 42.2231 35.5958 46.4214 32.9539 46.4214H6.86293C4.22101 46.4214 4.22101 42.2231 6.86293 42.2231ZM36.9454 7.49602C39.1809 7.49602 41.2861 8.07184 43.1151 9.08738L43.1568 11.0138C43.1568 11.0661 43.162 11.1184 43.1672 11.1656L42.4898 11.8513C40.8953 10.7991 38.9933 10.1919 36.9454 10.1919C31.3541 10.1919 26.8207 14.7409 26.8207 20.3577C26.8207 25.9746 31.3541 30.5288 36.9454 30.5288C42.5367 30.5288 47.0702 25.9746 47.0702 20.3577C47.0702 18.2848 46.4501 16.3584 45.3871 14.7513L46.0384 14.097C46.1062 14.1075 46.1739 14.1179 46.2469 14.1179L48.1645 14.1598C49.1754 15.9972 49.7486 18.112 49.7486 20.3577C49.7486 27.4665 44.0166 33.2247 36.9454 33.2247C29.869 33.2247 24.137 27.4665 24.137 20.3577C24.137 13.2542 29.869 7.49602 36.9454 7.49602ZM36.9454 13.1705C38.17 13.1705 39.3216 13.4793 40.3273 14.0237L38.5295 15.8297C38.0345 15.6517 37.4978 15.5575 36.9454 15.5575C34.3035 15.5575 32.1618 17.709 32.1618 20.3577C32.1618 23.0117 34.3035 25.1632 36.9454 25.1632C39.5821 25.1632 41.7238 23.0117 41.7238 20.3577C41.7238 19.7819 41.6248 19.2323 41.4372 18.7193L43.2298 16.9185C43.7873 17.9393 44.1052 19.1119 44.1052 20.3577C44.1052 24.3309 40.8953 27.5502 36.9454 27.5502C32.9904 27.5502 29.7857 24.3309 29.7857 20.3577C29.7857 16.3898 32.9904 13.1705 36.9454 13.1705ZM49.7903 8.59008L37.7687 20.6666C36.9975 21.4413 35.8355 20.274 36.6067 19.4992L48.623 7.42274C49.3943 6.65323 50.5563 7.82057 49.7903 8.59008ZM47.8466 4.22956L48.6543 6.69511L44.3814 10.9876L44.3136 7.7787L47.8466 4.22956ZM53.0002 9.40669L50.5459 8.59531L46.2729 12.8878L49.4672 12.9558L53.0002 9.40669Z" fill="#6E86F0"/>
</svg>
