<svg width="55" height="54" viewBox="0 0 55 54" fill="none" xmlns="http://www.w3.org/2000/svg">
<g clip-path="url(#clip0_2_1091)">
<path fill-rule="evenodd" clip-rule="evenodd" d="M19.8957 1.55151C30.0394 1.55151 38.2621 9.89456 38.2615 20.1858C38.2621 30.477 30.0394 38.8194 19.8957 38.8187C9.752 38.8194 1.52856 30.477 1.52856 20.1858C1.52856 9.89456 9.752 1.55217 19.8957 1.55151ZM13.1897 22.0826C12.6655 22.3903 11.9932 22.2091 11.6898 21.6772C11.3864 21.1454 11.5651 20.4632 12.0893 20.1555L24.404 12.9421L21.2748 11.9858C20.6934 11.8104 20.3628 11.189 20.5355 10.5991C20.7083 10.0092 21.3209 9.67377 21.9023 9.84908L27.4663 11.5495C27.7248 11.6292 27.9561 11.8039 28.1022 12.0596C28.4056 12.5914 28.2269 13.2736 27.7027 13.5813L13.1897 22.0826ZM23.1821 27.7531C23.1821 28.3693 22.689 28.8696 22.0816 28.8696C21.4742 28.8696 20.9812 28.3693 20.9812 27.7531V19.2519C20.9812 18.6357 21.4742 18.1354 22.0816 18.1354C22.689 18.1354 23.1821 18.6357 23.1821 19.2519V27.7531ZM27.554 27.7531C27.554 28.3693 27.0609 28.8696 26.4535 28.8696C25.8461 28.8696 25.3531 28.3693 25.3531 27.7531V17.0342C25.3531 16.4179 25.8461 15.9177 26.4535 15.9177C27.0609 15.9177 27.554 16.4179 27.554 17.0342V27.7531ZM18.8102 27.7531C18.8102 28.3693 18.3171 28.8696 17.7097 28.8696C17.1024 28.8696 16.6093 28.3693 16.6093 27.7531V22.3323C16.6093 21.7161 17.1024 21.2159 17.7097 21.2159C18.3171 21.2159 18.8102 21.7161 18.8102 22.3323V27.7531ZM14.4376 27.7531C14.4376 28.3693 13.9446 28.8696 13.3372 28.8696C12.7298 28.8696 12.2368 28.3693 12.2368 27.7531V25.0431C12.2368 24.4268 12.7298 23.9266 13.3372 23.9266C13.9446 23.9266 14.4376 24.4268 14.4376 25.0431V27.7531ZM34.8095 32.959L37.0844 35.2664C36.6024 35.5228 36.1503 35.8569 35.7462 36.2669C35.3421 36.6768 35.0128 37.1355 34.7601 37.6245L32.4852 35.3172C33.3238 34.5994 34.1007 33.8099 34.8095 32.959ZM36.5615 37.094L36.5621 37.0933C38.2764 35.3541 41.0802 35.3541 42.7945 37.0933L52.1853 46.6207C53.8996 48.36 53.8996 51.2045 52.1853 52.9437L52.1846 52.9444C50.4703 54.6836 47.6666 54.6836 45.9522 52.9444L36.5615 43.417C34.8471 41.6777 34.8471 38.8332 36.5615 37.094ZM19.8957 5.48017C27.9008 5.48083 34.3898 12.0642 34.3898 20.1858C34.3898 28.3067 27.9015 34.8907 19.8957 34.8907C11.8905 34.8907 5.4009 28.3067 5.4009 20.1858C5.40155 12.0635 11.8899 5.48083 19.8957 5.48017Z" fill="#6E86F0"/>
</g>
<defs>
<clipPath id="clip0_2_1091">
<rect width="55" height="54" fill="white"/>
</clipPath>
</defs>
</svg>
